<svg xmlns="http://www.w3.org/2000/svg" viewBox="0 0 335 78.54"><defs><style>.a{fill:#f0f;}</style></defs><title>itclub-logo</title><rect class="a" y="10.79" width="46.97" height="13.96" rx="4.76" ry="4.76"/><rect class="a" y="64.42" width="46.97" height="13.96" rx="4.76" ry="4.76"/><rect class="a" x="98.3" y="64.42" width="46.97" height="13.96" rx="4.76" ry="4.76"/><rect class="a" x="16.5" y="10.79" width="13.96" height="65.37" rx="4.76" ry="4.76"/><rect class="a" x="54.35" y="10.79" width="46.97" height="13.96" rx="4.76" ry="4.76"/><rect class="a" x="70.85" y="10.79" width="13.96" height="67.75" rx="4.76" ry="4.76"/><rect class="a" x="208.82" width="13.96" height="76.16" rx="4.76" ry="4.76"/><path class="a" d="M811.24,452.14c-1.67-12.53-11.47-16.5-16.23-16.5H782a21.8,21.8,0,0,0-3.53.28v-6.31a4.76,4.76,0,0,0-4.76-4.76h-4.44a4.76,4.76,0,0,0-4.76,4.76v53.31c0,19,13,20.31,17.49,20.31h13c4.76,0,14.56-4,16.23-16.5a4.94,4.94,0,0,0,.25-1.09V453.23A4.94,4.94,0,0,0,811.24,452.14ZM795,488.82l-13,0c-2-.64-3.53-2.24-3.53-5.93V456c0-3.69,1.49-5.29,3.53-5.92l13,0c2.2.65,2.7,2.24,2.7,5.9v27C797.71,486.58,797.21,488.18,795,488.82Z" transform="translate(-476.49 -424.85)"/><path class="a" d="M713.59,435.66a4.61,4.61,0,0,0-5.17,4.11v43.15c0,15.55,11.27,20.31,16.47,20.31h13c4.5,0,17.48-1.27,17.48-20.31V440.4a4.76,4.76,0,0,0-4.76-4.76h-4.44a4.76,4.76,0,0,0-4.76,4.76v42.52c0,3.69-1.49,5.29-3.52,5.93l-13,0c-2.19-.64-2.7-2.24-2.7-5.9V441a4.86,4.86,0,0,0-4.17-5.38Z" transform="translate(-476.49 -424.85)"/><path class="a" d="M666.86,466.72h4.43a4.61,4.61,0,0,0,5.17-4.1V456c0-15.55-11.27-20.31-16.48-20.31H647c-4.5,0-17.49,1.27-17.49,20.31v27c0,19,13,20.31,17.49,20.31h13c5.21,0,16.48-4.76,16.48-20.31v-6.66a4.61,4.61,0,0,0-5.17-4.11h-4.43a4.86,4.86,0,0,0-4.18,5.38v5.39c0,3.66-.5,5.26-2.7,5.9l-13,0c-2-.64-3.52-2.24-3.52-5.93V456c0-3.69,1.49-5.29,3.52-5.92l13,0c2.2.65,2.7,2.24,2.7,5.9v5.39A4.86,4.86,0,0,0,666.86,466.72Z" transform="translate(-476.49 -424.85)"/></svg>