<svg xmlns="http://www.w3.org/2000/svg" viewBox="0 0 335 78.54"><defs><style>.a{fill:#f0f;}</style></defs><title>itclub-logo</title><path class="a" d="M755.38,440.4v42.53c0,19-13,20.31-17.49,20.31h-13c-5.21,0-16.47-4.76-16.47-20.31V439.77a4.61,4.61,0,0,1,5.17-4.11H718a4.86,4.86,0,0,1,4.18,5.38v41.89c0,3.65.5,5.25,2.7,5.9l13,0c2-.64,3.53-2.23,3.53-5.92V440.4a4.76,4.76,0,0,1,4.76-4.76h4.44A4.76,4.76,0,0,1,755.38,440.4Z" transform="translate(-476.49 -424.85)"/><rect class="a" x="98.3" y="64.42" width="46.97" height="13.97" rx="4.76" ry="4.76"/><path class="a" d="M523.46,440.4v4.45a4.76,4.76,0,0,1-4.76,4.76H507v39.66H518.7a4.76,4.76,0,0,1,4.76,4.76v4.45a4.76,4.76,0,0,1-4.76,4.76H481.25a4.76,4.76,0,0,1-4.76-4.76V494a4.76,4.76,0,0,1,4.76-4.76H493V449.61H481.25a4.76,4.76,0,0,1-4.76-4.76V440.4a4.76,4.76,0,0,1,4.76-4.76H518.7A4.76,4.76,0,0,1,523.46,440.4Z" transform="translate(-476.49 -424.85)"/><rect class="a" x="208.82" width="13.96" height="76.16" rx="4.76" ry="4.76"/><path class="a" d="M573.05,449.61H561.31v49a4.76,4.76,0,0,1-4.76,4.76H552.1a4.76,4.76,0,0,1-4.76-4.76v-49H535.6a4.76,4.76,0,0,1-4.76-4.76V440.4a4.76,4.76,0,0,1,4.76-4.76h37.45a4.76,4.76,0,0,1,4.76,4.76v4.45A4.76,4.76,0,0,1,573.05,449.61Z" transform="translate(-476.49 -424.85)"/><path class="a" d="M676.46,456v6.67a4.61,4.61,0,0,1-5.18,4.1h-4.42a4.86,4.86,0,0,1-4.18-5.38V456c0-3.65-.5-5.25-2.7-5.9l-13,0c-2,.64-3.53,2.23-3.53,5.92v27c0,3.69,1.49,5.28,3.53,5.92l13,0c2.2-.65,2.7-2.25,2.7-5.9v-5.4a4.85,4.85,0,0,1,4.18-5.37h4.42a4.61,4.61,0,0,1,5.18,4.1v6.67c0,15.55-11.27,20.31-16.48,20.31H647c-4.51,0-17.49-1.27-17.49-20.31V456c0-19,13-20.31,17.49-20.31h13C665.19,435.64,676.46,440.4,676.46,456Z" transform="translate(-476.49 -424.85)"/><path class="a" d="M811.24,452.15c-1.67-12.53-11.47-16.51-16.23-16.51H782a22,22,0,0,0-3.53.29v-6.32a4.76,4.76,0,0,0-4.76-4.76h-4.44a4.76,4.76,0,0,0-4.76,4.76v53.32c0,19,13,20.31,17.49,20.31h13c4.76,0,14.56-4,16.23-16.51a4.69,4.69,0,0,0,.25-1.09v-32.4A4.69,4.69,0,0,0,811.24,452.15Zm-13.53,30.78c0,3.65-.5,5.25-2.7,5.9l-13,0c-2-.64-3.53-2.23-3.53-5.92V456c0-3.69,1.49-5.28,3.53-5.92l13,0c2.2.65,2.7,2.25,2.7,5.9Z" transform="translate(-476.49 -424.85)"/></svg>