<svg xmlns="http://www.w3.org/2000/svg" viewBox="0 0 338.5 80.85"><defs><style>.a{fill:#ff0;}.b{fill:#04afbb;}.c{fill:#fff;}</style></defs><title>itclub-logo-alt</title><path class="a" d="M753.88,439.21v42.53c0,19-13,20.31-17.49,20.31h-13c-5.21,0-16.47-4.76-16.47-20.31V438.58a4.61,4.61,0,0,1,5.17-4.11h4.42a4.86,4.86,0,0,1,4.18,5.38v41.89c0,3.65.5,5.25,2.7,5.9l13,0c2-.64,3.53-2.23,3.53-5.92V439.21a4.76,4.76,0,0,1,4.76-4.76h4.44A4.76,4.76,0,0,1,753.88,439.21Z" transform="translate(-474.99 -423.66)"/><rect class="a" x="98.3" y="64.42" width="46.97" height="13.97" rx="4.76" ry="4.76"/><path class="a" d="M522,439.21v4.45a4.76,4.76,0,0,1-4.76,4.76H505.45v39.66H517.2a4.76,4.76,0,0,1,4.76,4.76v4.45a4.76,4.76,0,0,1-4.76,4.76H479.75a4.76,4.76,0,0,1-4.76-4.76v-4.45a4.76,4.76,0,0,1,4.76-4.76h11.74V448.42H479.75a4.76,4.76,0,0,1-4.76-4.76v-4.45a4.76,4.76,0,0,1,4.76-4.76H517.2A4.76,4.76,0,0,1,522,439.21Z" transform="translate(-474.99 -423.66)"/><rect class="a" x="208.82" width="13.96" height="76.16" rx="4.76" ry="4.76"/><path class="a" d="M571.55,448.42H559.81v49a4.76,4.76,0,0,1-4.76,4.76H550.6a4.76,4.76,0,0,1-4.76-4.76v-49H534.1a4.76,4.76,0,0,1-4.76-4.76v-4.45a4.76,4.76,0,0,1,4.76-4.76h37.45a4.76,4.76,0,0,1,4.76,4.76v4.45A4.76,4.76,0,0,1,571.55,448.42Z" transform="translate(-474.99 -423.66)"/><path class="a" d="M675,454.76v6.67a4.61,4.61,0,0,1-5.18,4.1h-4.42a4.86,4.86,0,0,1-4.18-5.38v-5.39c0-3.65-.5-5.25-2.7-5.9l-13,0c-2,.64-3.53,2.23-3.53,5.92v27c0,3.69,1.49,5.28,3.53,5.92l13,0c2.2-.65,2.7-2.25,2.7-5.9v-5.4a4.85,4.85,0,0,1,4.18-5.37h4.42a4.61,4.61,0,0,1,5.18,4.1v6.67c0,15.55-11.27,20.31-16.48,20.31h-13c-4.51,0-17.49-1.27-17.49-20.31v-27c0-19,13-20.31,17.49-20.31h13C663.69,434.45,675,439.21,675,454.76Z" transform="translate(-474.99 -423.66)"/><path class="a" d="M809.74,451c-1.67-12.53-11.47-16.51-16.23-16.51h-13a22,22,0,0,0-3.53.29v-6.32a4.76,4.76,0,0,0-4.76-4.76h-4.44a4.76,4.76,0,0,0-4.76,4.76v53.32c0,19,13,20.31,17.49,20.31h13c4.76,0,14.56-4,16.23-16.51a4.69,4.69,0,0,0,.25-1.09v-32.4A4.69,4.69,0,0,0,809.74,451Zm-13.53,30.78c0,3.65-.5,5.25-2.7,5.9l-13,0c-2-.64-3.53-2.23-3.53-5.92v-27c0-3.69,1.49-5.28,3.53-5.92l13,0c2.2.65,2.7,2.25,2.7,5.9Z" transform="translate(-474.99 -423.66)"/><path class="b" d="M757.38,441.52v42.53c0,19-13,20.31-17.49,20.31h-13c-5.21,0-16.47-4.76-16.47-20.31V440.89a4.61,4.61,0,0,1,5.17-4.11H720a4.86,4.86,0,0,1,4.18,5.38v41.89c0,3.65.5,5.25,2.7,5.9l13,0c2-.64,3.53-2.23,3.53-5.92V441.52a4.76,4.76,0,0,1,4.76-4.76h4.44A4.76,4.76,0,0,1,757.38,441.52Z" transform="translate(-474.99 -423.66)"/><rect class="b" x="101.8" y="66.73" width="46.97" height="13.97" rx="4.76" ry="4.76"/><path class="b" d="M525.46,441.52V446a4.76,4.76,0,0,1-4.76,4.76H509v39.66H520.7a4.76,4.76,0,0,1,4.76,4.76v4.45a4.76,4.76,0,0,1-4.76,4.76H483.25a4.76,4.76,0,0,1-4.76-4.76v-4.45a4.76,4.76,0,0,1,4.76-4.76H495V450.73H483.25a4.76,4.76,0,0,1-4.76-4.76v-4.45a4.76,4.76,0,0,1,4.76-4.76H520.7A4.76,4.76,0,0,1,525.46,441.52Z" transform="translate(-474.99 -423.66)"/><rect class="b" x="212.32" y="2.31" width="13.96" height="76.16" rx="4.76" ry="4.76"/><path class="b" d="M575.05,450.73H563.31v49a4.76,4.76,0,0,1-4.76,4.76H554.1a4.76,4.76,0,0,1-4.76-4.76v-49H537.6a4.76,4.76,0,0,1-4.76-4.76v-4.45a4.76,4.76,0,0,1,4.76-4.76h37.45a4.76,4.76,0,0,1,4.76,4.76V446A4.76,4.76,0,0,1,575.05,450.73Z" transform="translate(-474.99 -423.66)"/><path class="b" d="M678.46,457.07v6.67a4.61,4.61,0,0,1-5.18,4.1h-4.42a4.86,4.86,0,0,1-4.18-5.38v-5.39c0-3.65-.5-5.25-2.7-5.9l-13,0c-2,.64-3.53,2.23-3.53,5.92v27c0,3.69,1.49,5.28,3.53,5.92l13,0c2.2-.65,2.7-2.25,2.7-5.9v-5.4a4.85,4.85,0,0,1,4.18-5.37h4.42a4.61,4.61,0,0,1,5.18,4.1v6.67c0,15.55-11.27,20.31-16.48,20.31H649c-4.51,0-17.49-1.27-17.49-20.31v-27c0-19,13-20.31,17.49-20.31h13C667.19,436.76,678.46,441.52,678.46,457.07Z" transform="translate(-474.99 -423.66)"/><path class="b" d="M813.24,453.27c-1.67-12.53-11.47-16.51-16.23-16.51H784a22,22,0,0,0-3.53.29v-6.32a4.76,4.76,0,0,0-4.76-4.76h-4.44a4.76,4.76,0,0,0-4.76,4.76v53.32c0,19,13,20.31,17.49,20.31h13c4.76,0,14.56-4,16.23-16.51a4.69,4.69,0,0,0,.25-1.09v-32.4A4.69,4.69,0,0,0,813.24,453.27Zm-13.53,30.78c0,3.65-.5,5.25-2.7,5.9l-13,0c-2-.64-3.53-2.23-3.53-5.92v-27c0-3.69,1.49-5.28,3.53-5.92l13,0c2.2.65,2.7,2.25,2.7,5.9Z" transform="translate(-474.99 -423.66)"/><path class="c" d="M755.38,440.4v42.53c0,19-13,20.31-17.49,20.31h-13c-5.21,0-16.47-4.76-16.47-20.31V439.77a4.61,4.61,0,0,1,5.17-4.11H718a4.86,4.86,0,0,1,4.18,5.38v41.89c0,3.65.5,5.25,2.7,5.9l13,0c2-.64,3.53-2.23,3.53-5.92V440.4a4.76,4.76,0,0,1,4.76-4.76h4.44A4.76,4.76,0,0,1,755.38,440.4Z" transform="translate(-474.99 -423.66)"/><rect class="c" x="99.8" y="65.61" width="46.97" height="13.97" rx="4.76" ry="4.76"/><path class="c" d="M523.46,440.4v4.45a4.76,4.76,0,0,1-4.76,4.76H507v39.66H518.7a4.76,4.76,0,0,1,4.76,4.76v4.45a4.76,4.76,0,0,1-4.76,4.76H481.25a4.76,4.76,0,0,1-4.76-4.76V494a4.76,4.76,0,0,1,4.76-4.76H493V449.61H481.25a4.76,4.76,0,0,1-4.76-4.76V440.4a4.76,4.76,0,0,1,4.76-4.76H518.7A4.76,4.76,0,0,1,523.46,440.4Z" transform="translate(-474.99 -423.66)"/><rect class="c" x="210.32" y="1.19" width="13.96" height="76.16" rx="4.76" ry="4.76"/><path class="c" d="M573.05,449.61H561.31v49a4.76,4.76,0,0,1-4.76,4.76H552.1a4.76,4.76,0,0,1-4.76-4.76v-49H535.6a4.76,4.76,0,0,1-4.76-4.76V440.4a4.76,4.76,0,0,1,4.76-4.76h37.45a4.76,4.76,0,0,1,4.76,4.76v4.45A4.76,4.76,0,0,1,573.05,449.61Z" transform="translate(-474.99 -423.66)"/><path class="c" d="M676.46,456v6.67a4.61,4.61,0,0,1-5.18,4.1h-4.42a4.86,4.86,0,0,1-4.18-5.38V456c0-3.65-.5-5.25-2.7-5.9l-13,0c-2,.64-3.53,2.23-3.53,5.92v27c0,3.69,1.49,5.28,3.53,5.92l13,0c2.2-.65,2.7-2.25,2.7-5.9v-5.4a4.85,4.85,0,0,1,4.18-5.37h4.42a4.61,4.61,0,0,1,5.18,4.1v6.67c0,15.55-11.27,20.31-16.48,20.31H647c-4.51,0-17.49-1.27-17.49-20.31V456c0-19,13-20.31,17.49-20.31h13C665.19,435.64,676.46,440.4,676.46,456Z" transform="translate(-474.99 -423.66)"/><path class="c" d="M811.24,452.15c-1.67-12.53-11.47-16.51-16.23-16.51H782a22,22,0,0,0-3.53.29v-6.32a4.76,4.76,0,0,0-4.76-4.76h-4.44a4.76,4.76,0,0,0-4.76,4.76v53.32c0,19,13,20.31,17.49,20.31h13c4.76,0,14.56-4,16.23-16.51a4.69,4.69,0,0,0,.25-1.09v-32.4A4.69,4.69,0,0,0,811.24,452.15Zm-13.53,30.78c0,3.65-.5,5.25-2.7,5.9l-13,0c-2-.64-3.53-2.23-3.53-5.92V456c0-3.69,1.49-5.28,3.53-5.92l13,0c2.2.65,2.7,2.25,2.7,5.9Z" transform="translate(-474.99 -423.66)"/></svg>